<?xml version="1.0" encoding="UTF-8" standalone="no"?>
<!DOCTYPE svg PUBLIC "-//W3C//DTD SVG 1.1//EN"
 "http://www.w3.org/Graphics/SVG/1.1/DTD/svg11.dtd">
<!-- Generated by graphviz version 2.40.1 (20161225.0304)
 -->
<!-- Title: dependencies Pages: 1 -->
<svg width="743pt" height="211pt"
 viewBox="0.00 0.00 743.00 211.00" xmlns="http://www.w3.org/2000/svg" xmlns:xlink="http://www.w3.org/1999/xlink">
<g id="graph0" class="graph" transform="scale(1 1) rotate(0) translate(4 207)">
<title>dependencies</title>
<polygon fill="#ffffff" stroke="transparent" points="-4,4 -4,-207 739,-207 739,4 -4,4"/>
<text text-anchor="start" x="346.5091" y="-42.4" font-family="sans-serif" font-weight="bold" font-size="14.00" fill="#000000">Legend</text>
<polygon fill="#ffffb3" stroke="transparent" points="133.5,-10 133.5,-30 153.5,-30 153.5,-10 133.5,-10"/>
<text text-anchor="start" x="157.129" y="-15.4" font-family="sans-serif" font-size="14.00" fill="#000000"> &#160;Declarations</text>
<polygon fill="#8dd3c7" stroke="transparent" points="246.5,-10 246.5,-30 266.5,-30 266.5,-10 246.5,-10"/>
<text text-anchor="start" x="270.2251" y="-15.4" font-family="sans-serif" font-size="14.00" fill="#000000"> &#160;Module</text>
<polygon fill="#80b1d3" stroke="transparent" points="332.5,-10 332.5,-30 352.5,-30 352.5,-10 332.5,-10"/>
<text text-anchor="start" x="356.2812" y="-15.4" font-family="sans-serif" font-size="14.00" fill="#000000"> &#160;Bootstrap</text>
<polygon fill="#fdb462" stroke="transparent" points="429.5,-10 429.5,-30 449.5,-30 449.5,-10 429.5,-10"/>
<text text-anchor="start" x="453.1732" y="-15.4" font-family="sans-serif" font-size="14.00" fill="#000000"> &#160;Providers</text>
<polygon fill="#fb8072" stroke="transparent" points="525.5,-10 525.5,-30 545.5,-30 545.5,-10 525.5,-10"/>
<text text-anchor="start" x="549.2258" y="-15.4" font-family="sans-serif" font-size="14.00" fill="#000000"> &#160;Exports</text>
<g id="clust1" class="cluster">
<title>cluster_RegisterBusBarPageModule</title>
<polygon fill="none" stroke="#000000" stroke-dasharray="1,5" points="8,-70 8,-195 727,-195 727,-70 8,-70"/>
</g>
<g id="clust2" class="cluster">
<title>cluster_RegisterBusBarPageModule_declarations</title>
<polygon fill="none" stroke="#000000" points="571,-78 571,-130 719,-130 719,-78 571,-78"/>
</g>
<g id="clust4" class="cluster">
<title>cluster_RegisterBusBarPageModule_imports</title>
<polygon fill="none" stroke="#000000" points="16,-78 16,-130 563,-130 563,-78 16,-78"/>
</g>
<!-- RegisterBusBarPage -->
<g id="node1" class="node">
<title>RegisterBusBarPage</title>
<polygon fill="#ffffb3" stroke="#000000" points="710.8571,-122 579.1429,-122 579.1429,-86 710.8571,-86 710.8571,-122"/>
<text text-anchor="middle" x="645" y="-99.8" font-family="Times,serif" font-size="14.00" fill="#000000">RegisterBusBarPage</text>
</g>
<!-- RegisterBusBarPageModule -->
<g id="node2" class="node">
<title>RegisterBusBarPageModule</title>
<polygon fill="#8dd3c7" stroke="#000000" points="465.9073,-187 462.9073,-191 441.9073,-191 438.9073,-187 290.0927,-187 290.0927,-151 465.9073,-151 465.9073,-187"/>
<text text-anchor="middle" x="378" y="-164.8" font-family="Times,serif" font-size="14.00" fill="#000000">RegisterBusBarPageModule</text>
</g>
<!-- RegisterBusBarPage&#45;&gt;RegisterBusBarPageModule -->
<g id="edge1" class="edge">
<title>RegisterBusBarPage&#45;&gt;RegisterBusBarPageModule</title>
<path fill="none" stroke="#000000" d="M645,-122.1061C645,-141.3391 645,-169 645,-169 645,-169 475.7956,-169 475.7956,-169"/>
<polygon fill="#000000" stroke="#000000" points="475.7956,-165.5001 465.7956,-169 475.7956,-172.5001 475.7956,-165.5001"/>
</g>
<!-- CommonModule -->
<g id="node3" class="node">
<title>CommonModule</title>
<polygon fill="#8dd3c7" stroke="#000000" points="554.6681,-122 551.6681,-126 530.6681,-126 527.6681,-122 443.3319,-122 443.3319,-86 554.6681,-86 554.6681,-122"/>
<text text-anchor="middle" x="499" y="-99.8" font-family="Times,serif" font-size="14.00" fill="#000000">CommonModule</text>
</g>
<!-- CommonModule&#45;&gt;RegisterBusBarPageModule -->
<g id="edge2" class="edge">
<title>CommonModule&#45;&gt;RegisterBusBarPageModule</title>
<path fill="none" stroke="#000000" d="M454.4348,-122.1061C454.4348,-122.1061 454.4348,-140.991 454.4348,-140.991"/>
<polygon fill="#000000" stroke="#000000" points="450.9349,-140.9909 454.4348,-150.991 457.9349,-140.991 450.9349,-140.9909"/>
</g>
<!-- FormsModule -->
<g id="node4" class="node">
<title>FormsModule</title>
<polygon fill="#8dd3c7" stroke="#000000" points="425.8288,-122 422.8288,-126 401.8288,-126 398.8288,-122 330.1712,-122 330.1712,-86 425.8288,-86 425.8288,-122"/>
<text text-anchor="middle" x="378" y="-99.8" font-family="Times,serif" font-size="14.00" fill="#000000">FormsModule</text>
</g>
<!-- FormsModule&#45;&gt;RegisterBusBarPageModule -->
<g id="edge3" class="edge">
<title>FormsModule&#45;&gt;RegisterBusBarPageModule</title>
<path fill="none" stroke="#000000" d="M378,-122.1061C378,-122.1061 378,-140.991 378,-140.991"/>
<polygon fill="#000000" stroke="#000000" points="374.5001,-140.9909 378,-150.991 381.5001,-140.991 374.5001,-140.9909"/>
</g>
<!-- IonicModule -->
<g id="node5" class="node">
<title>IonicModule</title>
<polygon fill="#8dd3c7" stroke="#000000" points="312.3162,-122 309.3162,-126 288.3162,-126 285.3162,-122 223.6838,-122 223.6838,-86 312.3162,-86 312.3162,-122"/>
<text text-anchor="middle" x="268" y="-99.8" font-family="Times,serif" font-size="14.00" fill="#000000">IonicModule</text>
</g>
<!-- IonicModule&#45;&gt;RegisterBusBarPageModule -->
<g id="edge4" class="edge">
<title>IonicModule&#45;&gt;RegisterBusBarPageModule</title>
<path fill="none" stroke="#000000" d="M301.2272,-122.1061C301.2272,-122.1061 301.2272,-140.991 301.2272,-140.991"/>
<polygon fill="#000000" stroke="#000000" points="297.7273,-140.9909 301.2272,-150.991 304.7273,-140.991 297.7273,-140.9909"/>
</g>
<!-- RouterModule.forChild(args) -->
<g id="node6" class="node">
<title>RouterModule.forChild(args)</title>
<polygon fill="#8dd3c7" stroke="#000000" points="205.7323,-122 202.7323,-126 181.7323,-126 178.7323,-122 24.2677,-122 24.2677,-86 205.7323,-86 205.7323,-122"/>
<text text-anchor="middle" x="115" y="-99.8" font-family="Times,serif" font-size="14.00" fill="#000000">RouterModule.forChild(args)</text>
</g>
<!-- RouterModule.forChild(args)&#45;&gt;RegisterBusBarPageModule -->
<g id="edge5" class="edge">
<title>RouterModule.forChild(args)&#45;&gt;RegisterBusBarPageModule</title>
<path fill="none" stroke="#000000" d="M115,-122.1061C115,-141.3391 115,-169 115,-169 115,-169 280.0592,-169 280.0592,-169"/>
<polygon fill="#000000" stroke="#000000" points="280.0592,-172.5001 290.0592,-169 280.0591,-165.5001 280.0592,-172.5001"/>
</g>
</g>
</svg>
