<?xml version="1.0" encoding="UTF-8" standalone="no"?>
<!DOCTYPE svg PUBLIC "-//W3C//DTD SVG 1.1//EN"
 "http://www.w3.org/Graphics/SVG/1.1/DTD/svg11.dtd">
<!-- Generated by graphviz version 2.40.1 (20161225.0304)
 -->
<!-- Title: dependencies Pages: 1 -->
<svg width="687pt" height="211pt"
 viewBox="0.00 0.00 687.00 211.00" xmlns="http://www.w3.org/2000/svg" xmlns:xlink="http://www.w3.org/1999/xlink">
<g id="graph0" class="graph" transform="scale(1 1) rotate(0) translate(4 207)">
<title>dependencies</title>
<polygon fill="#ffffff" stroke="transparent" points="-4,4 -4,-207 683,-207 683,4 -4,4"/>
<text text-anchor="start" x="318.5091" y="-42.4" font-family="sans-serif" font-weight="bold" font-size="14.00" fill="#000000">Legend</text>
<polygon fill="#ffffb3" stroke="transparent" points="105.5,-10 105.5,-30 125.5,-30 125.5,-10 105.5,-10"/>
<text text-anchor="start" x="129.129" y="-15.4" font-family="sans-serif" font-size="14.00" fill="#000000"> &#160;Declarations</text>
<polygon fill="#8dd3c7" stroke="transparent" points="218.5,-10 218.5,-30 238.5,-30 238.5,-10 218.5,-10"/>
<text text-anchor="start" x="242.2251" y="-15.4" font-family="sans-serif" font-size="14.00" fill="#000000"> &#160;Module</text>
<polygon fill="#80b1d3" stroke="transparent" points="304.5,-10 304.5,-30 324.5,-30 324.5,-10 304.5,-10"/>
<text text-anchor="start" x="328.2812" y="-15.4" font-family="sans-serif" font-size="14.00" fill="#000000"> &#160;Bootstrap</text>
<polygon fill="#fdb462" stroke="transparent" points="401.5,-10 401.5,-30 421.5,-30 421.5,-10 401.5,-10"/>
<text text-anchor="start" x="425.1732" y="-15.4" font-family="sans-serif" font-size="14.00" fill="#000000"> &#160;Providers</text>
<polygon fill="#fb8072" stroke="transparent" points="497.5,-10 497.5,-30 517.5,-30 517.5,-10 497.5,-10"/>
<text text-anchor="start" x="521.2258" y="-15.4" font-family="sans-serif" font-size="14.00" fill="#000000"> &#160;Exports</text>
<g id="clust1" class="cluster">
<title>cluster_LegalPageModule</title>
<polygon fill="none" stroke="#000000" stroke-dasharray="1,5" points="8,-70 8,-195 671,-195 671,-70 8,-70"/>
</g>
<g id="clust2" class="cluster">
<title>cluster_LegalPageModule_declarations</title>
<polygon fill="none" stroke="#000000" points="571,-78 571,-130 663,-130 663,-78 571,-78"/>
</g>
<g id="clust4" class="cluster">
<title>cluster_LegalPageModule_imports</title>
<polygon fill="none" stroke="#000000" points="16,-78 16,-130 563,-130 563,-78 16,-78"/>
</g>
<!-- LegalPage -->
<g id="node1" class="node">
<title>LegalPage</title>
<polygon fill="#ffffb3" stroke="#000000" points="654.5842,-122 579.4158,-122 579.4158,-86 654.5842,-86 654.5842,-122"/>
<text text-anchor="middle" x="617" y="-99.8" font-family="Times,serif" font-size="14.00" fill="#000000">LegalPage</text>
</g>
<!-- LegalPageModule -->
<g id="node2" class="node">
<title>LegalPageModule</title>
<polygon fill="#8dd3c7" stroke="#000000" points="437.1346,-187 434.1346,-191 413.1346,-191 410.1346,-187 318.8654,-187 318.8654,-151 437.1346,-151 437.1346,-187"/>
<text text-anchor="middle" x="378" y="-164.8" font-family="Times,serif" font-size="14.00" fill="#000000">LegalPageModule</text>
</g>
<!-- LegalPage&#45;&gt;LegalPageModule -->
<g id="edge1" class="edge">
<title>LegalPage&#45;&gt;LegalPageModule</title>
<path fill="none" stroke="#000000" d="M617,-122.1061C617,-141.3391 617,-169 617,-169 617,-169 447.3857,-169 447.3857,-169"/>
<polygon fill="#000000" stroke="#000000" points="447.3858,-165.5001 437.3857,-169 447.3857,-172.5001 447.3858,-165.5001"/>
</g>
<!-- CommonModule -->
<g id="node3" class="node">
<title>CommonModule</title>
<polygon fill="#8dd3c7" stroke="#000000" points="554.6681,-122 551.6681,-126 530.6681,-126 527.6681,-122 443.3319,-122 443.3319,-86 554.6681,-86 554.6681,-122"/>
<text text-anchor="middle" x="499" y="-99.8" font-family="Times,serif" font-size="14.00" fill="#000000">CommonModule</text>
</g>
<!-- CommonModule&#45;&gt;LegalPageModule -->
<g id="edge2" class="edge">
<title>CommonModule&#45;&gt;LegalPageModule</title>
<path fill="none" stroke="#000000" d="M443.2498,-104C436.2538,-104 431.4906,-104 431.4906,-104 431.4906,-104 431.4906,-140.8939 431.4906,-140.8939"/>
<polygon fill="#000000" stroke="#000000" points="427.9906,-140.8938 431.4906,-150.8939 434.9906,-140.8939 427.9906,-140.8938"/>
</g>
<!-- FormsModule -->
<g id="node4" class="node">
<title>FormsModule</title>
<polygon fill="#8dd3c7" stroke="#000000" points="425.8288,-122 422.8288,-126 401.8288,-126 398.8288,-122 330.1712,-122 330.1712,-86 425.8288,-86 425.8288,-122"/>
<text text-anchor="middle" x="378" y="-99.8" font-family="Times,serif" font-size="14.00" fill="#000000">FormsModule</text>
</g>
<!-- FormsModule&#45;&gt;LegalPageModule -->
<g id="edge3" class="edge">
<title>FormsModule&#45;&gt;LegalPageModule</title>
<path fill="none" stroke="#000000" d="M378,-122.1061C378,-122.1061 378,-140.991 378,-140.991"/>
<polygon fill="#000000" stroke="#000000" points="374.5001,-140.9909 378,-150.991 381.5001,-140.991 374.5001,-140.9909"/>
</g>
<!-- IonicModule -->
<g id="node5" class="node">
<title>IonicModule</title>
<polygon fill="#8dd3c7" stroke="#000000" points="312.3162,-122 309.3162,-126 288.3162,-126 285.3162,-122 223.6838,-122 223.6838,-86 312.3162,-86 312.3162,-122"/>
<text text-anchor="middle" x="268" y="-99.8" font-family="Times,serif" font-size="14.00" fill="#000000">IonicModule</text>
</g>
<!-- IonicModule&#45;&gt;LegalPageModule -->
<g id="edge4" class="edge">
<title>IonicModule&#45;&gt;LegalPageModule</title>
<path fill="none" stroke="#000000" d="M312.2477,-104C319.3971,-104 324.5095,-104 324.5095,-104 324.5095,-104 324.5095,-140.8939 324.5095,-140.8939"/>
<polygon fill="#000000" stroke="#000000" points="321.0095,-140.8938 324.5095,-150.8939 328.0095,-140.8939 321.0095,-140.8938"/>
</g>
<!-- RouterModule.forChild(args) -->
<g id="node6" class="node">
<title>RouterModule.forChild(args)</title>
<polygon fill="#8dd3c7" stroke="#000000" points="205.7323,-122 202.7323,-126 181.7323,-126 178.7323,-122 24.2677,-122 24.2677,-86 205.7323,-86 205.7323,-122"/>
<text text-anchor="middle" x="115" y="-99.8" font-family="Times,serif" font-size="14.00" fill="#000000">RouterModule.forChild(args)</text>
</g>
<!-- RouterModule.forChild(args)&#45;&gt;LegalPageModule -->
<g id="edge5" class="edge">
<title>RouterModule.forChild(args)&#45;&gt;LegalPageModule</title>
<path fill="none" stroke="#000000" d="M115,-122.1061C115,-141.3391 115,-169 115,-169 115,-169 308.6497,-169 308.6497,-169"/>
<polygon fill="#000000" stroke="#000000" points="308.6498,-172.5001 318.6497,-169 308.6497,-165.5001 308.6498,-172.5001"/>
</g>
</g>
</svg>
