<?xml version="1.0" encoding="UTF-8" standalone="no"?>
<!DOCTYPE svg PUBLIC "-//W3C//DTD SVG 1.1//EN"
 "http://www.w3.org/Graphics/SVG/1.1/DTD/svg11.dtd">
<!-- Generated by graphviz version 2.40.1 (20161225.0304)
 -->
<!-- Title: dependencies Pages: 1 -->
<svg width="701pt" height="211pt"
 viewBox="0.00 0.00 701.00 211.00" xmlns="http://www.w3.org/2000/svg" xmlns:xlink="http://www.w3.org/1999/xlink">
<g id="graph0" class="graph" transform="scale(1 1) rotate(0) translate(4 207)">
<title>dependencies</title>
<polygon fill="#ffffff" stroke="transparent" points="-4,4 -4,-207 697,-207 697,4 -4,4"/>
<text text-anchor="start" x="325.5091" y="-42.4" font-family="sans-serif" font-weight="bold" font-size="14.00" fill="#000000">Legend</text>
<polygon fill="#ffffb3" stroke="transparent" points="112.5,-10 112.5,-30 132.5,-30 132.5,-10 112.5,-10"/>
<text text-anchor="start" x="136.129" y="-15.4" font-family="sans-serif" font-size="14.00" fill="#000000"> &#160;Declarations</text>
<polygon fill="#8dd3c7" stroke="transparent" points="225.5,-10 225.5,-30 245.5,-30 245.5,-10 225.5,-10"/>
<text text-anchor="start" x="249.2251" y="-15.4" font-family="sans-serif" font-size="14.00" fill="#000000"> &#160;Module</text>
<polygon fill="#80b1d3" stroke="transparent" points="311.5,-10 311.5,-30 331.5,-30 331.5,-10 311.5,-10"/>
<text text-anchor="start" x="335.2812" y="-15.4" font-family="sans-serif" font-size="14.00" fill="#000000"> &#160;Bootstrap</text>
<polygon fill="#fdb462" stroke="transparent" points="408.5,-10 408.5,-30 428.5,-30 428.5,-10 408.5,-10"/>
<text text-anchor="start" x="432.1732" y="-15.4" font-family="sans-serif" font-size="14.00" fill="#000000"> &#160;Providers</text>
<polygon fill="#fb8072" stroke="transparent" points="504.5,-10 504.5,-30 524.5,-30 524.5,-10 504.5,-10"/>
<text text-anchor="start" x="528.2258" y="-15.4" font-family="sans-serif" font-size="14.00" fill="#000000"> &#160;Exports</text>
<g id="clust1" class="cluster">
<title>cluster_RedirectPageModule</title>
<polygon fill="none" stroke="#000000" stroke-dasharray="1,5" points="8,-70 8,-195 685,-195 685,-70 8,-70"/>
</g>
<g id="clust2" class="cluster">
<title>cluster_RedirectPageModule_declarations</title>
<polygon fill="none" stroke="#000000" points="571,-78 571,-130 677,-130 677,-78 571,-78"/>
</g>
<g id="clust4" class="cluster">
<title>cluster_RedirectPageModule_imports</title>
<polygon fill="none" stroke="#000000" points="16,-78 16,-130 563,-130 563,-78 16,-78"/>
</g>
<!-- RedirectPage -->
<g id="node1" class="node">
<title>RedirectPage</title>
<polygon fill="#ffffb3" stroke="#000000" points="669.1347,-122 578.8653,-122 578.8653,-86 669.1347,-86 669.1347,-122"/>
<text text-anchor="middle" x="624" y="-99.8" font-family="Times,serif" font-size="14.00" fill="#000000">RedirectPage</text>
</g>
<!-- RedirectPageModule -->
<g id="node2" class="node">
<title>RedirectPageModule</title>
<polygon fill="#8dd3c7" stroke="#000000" points="445.1839,-187 442.1839,-191 421.1839,-191 418.1839,-187 310.8161,-187 310.8161,-151 445.1839,-151 445.1839,-187"/>
<text text-anchor="middle" x="378" y="-164.8" font-family="Times,serif" font-size="14.00" fill="#000000">RedirectPageModule</text>
</g>
<!-- RedirectPage&#45;&gt;RedirectPageModule -->
<g id="edge1" class="edge">
<title>RedirectPage&#45;&gt;RedirectPageModule</title>
<path fill="none" stroke="#000000" d="M624,-122.1061C624,-141.3391 624,-169 624,-169 624,-169 455.2206,-169 455.2206,-169"/>
<polygon fill="#000000" stroke="#000000" points="455.2206,-165.5001 445.2206,-169 455.2205,-172.5001 455.2206,-165.5001"/>
</g>
<!-- CommonModule -->
<g id="node3" class="node">
<title>CommonModule</title>
<polygon fill="#8dd3c7" stroke="#000000" points="554.6681,-122 551.6681,-126 530.6681,-126 527.6681,-122 443.3319,-122 443.3319,-86 554.6681,-86 554.6681,-122"/>
<text text-anchor="middle" x="499" y="-99.8" font-family="Times,serif" font-size="14.00" fill="#000000">CommonModule</text>
</g>
<!-- CommonModule&#45;&gt;RedirectPageModule -->
<g id="edge2" class="edge">
<title>CommonModule&#45;&gt;RedirectPageModule</title>
<path fill="none" stroke="#000000" d="M443.1254,-104C437.8456,-104 434.4152,-104 434.4152,-104 434.4152,-104 434.4152,-140.8939 434.4152,-140.8939"/>
<polygon fill="#000000" stroke="#000000" points="430.9152,-140.8938 434.4152,-150.8939 437.9152,-140.8939 430.9152,-140.8938"/>
</g>
<!-- FormsModule -->
<g id="node4" class="node">
<title>FormsModule</title>
<polygon fill="#8dd3c7" stroke="#000000" points="425.8288,-122 422.8288,-126 401.8288,-126 398.8288,-122 330.1712,-122 330.1712,-86 425.8288,-86 425.8288,-122"/>
<text text-anchor="middle" x="378" y="-99.8" font-family="Times,serif" font-size="14.00" fill="#000000">FormsModule</text>
</g>
<!-- FormsModule&#45;&gt;RedirectPageModule -->
<g id="edge3" class="edge">
<title>FormsModule&#45;&gt;RedirectPageModule</title>
<path fill="none" stroke="#000000" d="M378,-122.1061C378,-122.1061 378,-140.991 378,-140.991"/>
<polygon fill="#000000" stroke="#000000" points="374.5001,-140.9909 378,-150.991 381.5001,-140.991 374.5001,-140.9909"/>
</g>
<!-- IonicModule -->
<g id="node5" class="node">
<title>IonicModule</title>
<polygon fill="#8dd3c7" stroke="#000000" points="312.3162,-122 309.3162,-126 288.3162,-126 285.3162,-122 223.6838,-122 223.6838,-86 312.3162,-86 312.3162,-122"/>
<text text-anchor="middle" x="268" y="-99.8" font-family="Times,serif" font-size="14.00" fill="#000000">IonicModule</text>
</g>
<!-- IonicModule&#45;&gt;RedirectPageModule -->
<g id="edge4" class="edge">
<title>IonicModule&#45;&gt;RedirectPageModule</title>
<path fill="none" stroke="#000000" d="M312.4542,-104C317.7077,-104 321.2469,-104 321.2469,-104 321.2469,-104 321.2469,-140.8939 321.2469,-140.8939"/>
<polygon fill="#000000" stroke="#000000" points="317.7469,-140.8938 321.2469,-150.8939 324.7469,-140.8939 317.7469,-140.8938"/>
</g>
<!-- RouterModule.forChild(args) -->
<g id="node6" class="node">
<title>RouterModule.forChild(args)</title>
<polygon fill="#8dd3c7" stroke="#000000" points="205.7323,-122 202.7323,-126 181.7323,-126 178.7323,-122 24.2677,-122 24.2677,-86 205.7323,-86 205.7323,-122"/>
<text text-anchor="middle" x="115" y="-99.8" font-family="Times,serif" font-size="14.00" fill="#000000">RouterModule.forChild(args)</text>
</g>
<!-- RouterModule.forChild(args)&#45;&gt;RedirectPageModule -->
<g id="edge5" class="edge">
<title>RouterModule.forChild(args)&#45;&gt;RedirectPageModule</title>
<path fill="none" stroke="#000000" d="M115,-122.1061C115,-141.3391 115,-169 115,-169 115,-169 300.6125,-169 300.6125,-169"/>
<polygon fill="#000000" stroke="#000000" points="300.6125,-172.5001 310.6125,-169 300.6125,-165.5001 300.6125,-172.5001"/>
</g>
</g>
</svg>
