<?xml version="1.0" encoding="UTF-8" standalone="no"?>
<!DOCTYPE svg PUBLIC "-//W3C//DTD SVG 1.1//EN"
 "http://www.w3.org/Graphics/SVG/1.1/DTD/svg11.dtd">
<!-- Generated by graphviz version 2.40.1 (20161225.0304)
 -->
<!-- Title: dependencies Pages: 1 -->
<svg width="970pt" height="211pt"
 viewBox="0.00 0.00 970.00 211.00" xmlns="http://www.w3.org/2000/svg" xmlns:xlink="http://www.w3.org/1999/xlink">
<g id="graph0" class="graph" transform="scale(1 1) rotate(0) translate(4 207)">
<title>dependencies</title>
<polygon fill="#ffffff" stroke="transparent" points="-4,4 -4,-207 966,-207 966,4 -4,4"/>
<text text-anchor="start" x="460.0091" y="-42.4" font-family="sans-serif" font-weight="bold" font-size="14.00" fill="#000000">Legend</text>
<polygon fill="#ffffb3" stroke="transparent" points="247,-10 247,-30 267,-30 267,-10 247,-10"/>
<text text-anchor="start" x="270.629" y="-15.4" font-family="sans-serif" font-size="14.00" fill="#000000"> &#160;Declarations</text>
<polygon fill="#8dd3c7" stroke="transparent" points="360,-10 360,-30 380,-30 380,-10 360,-10"/>
<text text-anchor="start" x="383.7251" y="-15.4" font-family="sans-serif" font-size="14.00" fill="#000000"> &#160;Module</text>
<polygon fill="#80b1d3" stroke="transparent" points="446,-10 446,-30 466,-30 466,-10 446,-10"/>
<text text-anchor="start" x="469.7812" y="-15.4" font-family="sans-serif" font-size="14.00" fill="#000000"> &#160;Bootstrap</text>
<polygon fill="#fdb462" stroke="transparent" points="543,-10 543,-30 563,-30 563,-10 543,-10"/>
<text text-anchor="start" x="566.6732" y="-15.4" font-family="sans-serif" font-size="14.00" fill="#000000"> &#160;Providers</text>
<polygon fill="#fb8072" stroke="transparent" points="639,-10 639,-30 659,-30 659,-10 639,-10"/>
<text text-anchor="start" x="662.7258" y="-15.4" font-family="sans-serif" font-size="14.00" fill="#000000"> &#160;Exports</text>
<g id="clust1" class="cluster">
<title>cluster_MenuPageModule</title>
<polygon fill="none" stroke="#000000" stroke-dasharray="1,5" points="8,-70 8,-195 954,-195 954,-70 8,-70"/>
</g>
<g id="clust2" class="cluster">
<title>cluster_MenuPageModule_declarations</title>
<polygon fill="none" stroke="#000000" points="854,-78 854,-130 946,-130 946,-78 854,-78"/>
</g>
<g id="clust4" class="cluster">
<title>cluster_MenuPageModule_imports</title>
<polygon fill="none" stroke="#000000" points="16,-78 16,-130 846,-130 846,-78 16,-78"/>
</g>
<!-- MenuPage -->
<g id="node1" class="node">
<title>MenuPage</title>
<polygon fill="#ffffb3" stroke="#000000" points="937.8711,-122 862.1289,-122 862.1289,-86 937.8711,-86 937.8711,-122"/>
<text text-anchor="middle" x="900" y="-99.8" font-family="Times,serif" font-size="14.00" fill="#000000">MenuPage</text>
</g>
<!-- MenuPageModule -->
<g id="node2" class="node">
<title>MenuPageModule</title>
<polygon fill="#8dd3c7" stroke="#000000" points="610.9215,-187 607.9215,-191 586.9215,-191 583.9215,-187 491.0785,-187 491.0785,-151 610.9215,-151 610.9215,-187"/>
<text text-anchor="middle" x="551" y="-164.8" font-family="Times,serif" font-size="14.00" fill="#000000">MenuPageModule</text>
</g>
<!-- MenuPage&#45;&gt;MenuPageModule -->
<g id="edge1" class="edge">
<title>MenuPage&#45;&gt;MenuPageModule</title>
<path fill="none" stroke="#000000" d="M900,-122.2843C900,-143.3211 900,-175 900,-175 900,-175 620.9952,-175 620.9952,-175"/>
<polygon fill="#000000" stroke="#000000" points="620.9953,-171.5001 610.9952,-175 620.9952,-178.5001 620.9953,-171.5001"/>
</g>
<!-- CommonModule -->
<g id="node3" class="node">
<title>CommonModule</title>
<polygon fill="#8dd3c7" stroke="#000000" points="837.6681,-122 834.6681,-126 813.6681,-126 810.6681,-122 726.3319,-122 726.3319,-86 837.6681,-86 837.6681,-122"/>
<text text-anchor="middle" x="782" y="-99.8" font-family="Times,serif" font-size="14.00" fill="#000000">CommonModule</text>
</g>
<!-- CommonModule&#45;&gt;MenuPageModule -->
<g id="edge2" class="edge">
<title>CommonModule&#45;&gt;MenuPageModule</title>
<path fill="none" stroke="#000000" d="M782,-122.0225C782,-139.3734 782,-163 782,-163 782,-163 620.7887,-163 620.7887,-163"/>
<polygon fill="#000000" stroke="#000000" points="620.7887,-159.5001 610.7887,-163 620.7886,-166.5001 620.7887,-159.5001"/>
</g>
<!-- FormsModule -->
<g id="node4" class="node">
<title>FormsModule</title>
<polygon fill="#8dd3c7" stroke="#000000" points="708.8288,-122 705.8288,-126 684.8288,-126 681.8288,-122 613.1712,-122 613.1712,-86 708.8288,-86 708.8288,-122"/>
<text text-anchor="middle" x="661" y="-99.8" font-family="Times,serif" font-size="14.00" fill="#000000">FormsModule</text>
</g>
<!-- FormsModule&#45;&gt;MenuPageModule -->
<g id="edge3" class="edge">
<title>FormsModule&#45;&gt;MenuPageModule</title>
<path fill="none" stroke="#000000" d="M613.3151,-104C607.1524,-104 602.9341,-104 602.9341,-104 602.9341,-104 602.9341,-140.8939 602.9341,-140.8939"/>
<polygon fill="#000000" stroke="#000000" points="599.4342,-140.8938 602.9341,-150.8939 606.4342,-140.8939 599.4342,-140.8938"/>
</g>
<!-- IonicModule -->
<g id="node5" class="node">
<title>IonicModule</title>
<polygon fill="#8dd3c7" stroke="#000000" points="595.3162,-122 592.3162,-126 571.3162,-126 568.3162,-122 506.6838,-122 506.6838,-86 595.3162,-86 595.3162,-122"/>
<text text-anchor="middle" x="551" y="-99.8" font-family="Times,serif" font-size="14.00" fill="#000000">IonicModule</text>
</g>
<!-- IonicModule&#45;&gt;MenuPageModule -->
<g id="edge4" class="edge">
<title>IonicModule&#45;&gt;MenuPageModule</title>
<path fill="none" stroke="#000000" d="M551,-122.1061C551,-122.1061 551,-140.991 551,-140.991"/>
<polygon fill="#000000" stroke="#000000" points="547.5001,-140.9909 551,-150.991 554.5001,-140.991 547.5001,-140.9909"/>
</g>
<!-- RouterModule.forChild(args) -->
<g id="node6" class="node">
<title>RouterModule.forChild(args)</title>
<polygon fill="#8dd3c7" stroke="#000000" points="488.7323,-122 485.7323,-126 464.7323,-126 461.7323,-122 307.2677,-122 307.2677,-86 488.7323,-86 488.7323,-122"/>
<text text-anchor="middle" x="398" y="-99.8" font-family="Times,serif" font-size="14.00" fill="#000000">RouterModule.forChild(args)</text>
</g>
<!-- RouterModule.forChild(args)&#45;&gt;MenuPageModule -->
<g id="edge5" class="edge">
<title>RouterModule.forChild(args)&#45;&gt;MenuPageModule</title>
<path fill="none" stroke="#000000" d="M488.6307,-104C495.0548,-104 499.0659,-104 499.0659,-104 499.0659,-104 499.0659,-140.8939 499.0659,-140.8939"/>
<polygon fill="#000000" stroke="#000000" points="495.566,-140.8938 499.0659,-150.8939 502.566,-140.8939 495.566,-140.8938"/>
</g>
<!-- MatExpansionModule -->
<g id="node7" class="node">
<title>MatExpansionModule</title>
<polygon fill="#8dd3c7" stroke="#000000" points="289.7021,-122 286.7021,-126 265.7021,-126 262.7021,-122 148.2979,-122 148.2979,-86 289.7021,-86 289.7021,-122"/>
<text text-anchor="middle" x="219" y="-99.8" font-family="Times,serif" font-size="14.00" fill="#000000">MatExpansionModule</text>
</g>
<!-- MatExpansionModule&#45;&gt;MenuPageModule -->
<g id="edge6" class="edge">
<title>MatExpansionModule&#45;&gt;MenuPageModule</title>
<path fill="none" stroke="#000000" d="M219,-122.0225C219,-139.3734 219,-163 219,-163 219,-163 481.2616,-163 481.2616,-163"/>
<polygon fill="#000000" stroke="#000000" points="481.2616,-166.5001 491.2616,-163 481.2616,-159.5001 481.2616,-166.5001"/>
</g>
<!-- MatIconModule -->
<g id="node8" class="node">
<title>MatIconModule</title>
<polygon fill="#8dd3c7" stroke="#000000" points="130.4748,-122 127.4748,-126 106.4748,-126 103.4748,-122 23.5252,-122 23.5252,-86 130.4748,-86 130.4748,-122"/>
<text text-anchor="middle" x="77" y="-99.8" font-family="Times,serif" font-size="14.00" fill="#000000">MatIconModule</text>
</g>
<!-- MatIconModule&#45;&gt;MenuPageModule -->
<g id="edge7" class="edge">
<title>MatIconModule&#45;&gt;MenuPageModule</title>
<path fill="none" stroke="#000000" d="M77,-122.2843C77,-143.3211 77,-175 77,-175 77,-175 480.9676,-175 480.9676,-175"/>
<polygon fill="#000000" stroke="#000000" points="480.9676,-178.5001 490.9676,-175 480.9675,-171.5001 480.9676,-178.5001"/>
</g>
</g>
</svg>
