<?xml version="1.0" encoding="UTF-8" standalone="no"?>
<!DOCTYPE svg PUBLIC "-//W3C//DTD SVG 1.1//EN"
 "http://www.w3.org/Graphics/SVG/1.1/DTD/svg11.dtd">
<!-- Generated by graphviz version 2.40.1 (20161225.0304)
 -->
<!-- Title: dependencies Pages: 1 -->
<svg width="2761pt" height="284pt"
 viewBox="0.00 0.00 2761.00 284.00" xmlns="http://www.w3.org/2000/svg" xmlns:xlink="http://www.w3.org/1999/xlink">
<g id="graph0" class="graph" transform="scale(1 1) rotate(0) translate(4 280)">
<title>dependencies</title>
<polygon fill="#ffffff" stroke="transparent" points="-4,4 -4,-280 2757,-280 2757,4 -4,4"/>
<text text-anchor="start" x="1355.5091" y="-42.4" font-family="sans-serif" font-weight="bold" font-size="14.00" fill="#000000">Legend</text>
<polygon fill="#ffffb3" stroke="transparent" points="1142.5,-10 1142.5,-30 1162.5,-30 1162.5,-10 1142.5,-10"/>
<text text-anchor="start" x="1166.129" y="-15.4" font-family="sans-serif" font-size="14.00" fill="#000000"> &#160;Declarations</text>
<polygon fill="#8dd3c7" stroke="transparent" points="1255.5,-10 1255.5,-30 1275.5,-30 1275.5,-10 1255.5,-10"/>
<text text-anchor="start" x="1279.2251" y="-15.4" font-family="sans-serif" font-size="14.00" fill="#000000"> &#160;Module</text>
<polygon fill="#80b1d3" stroke="transparent" points="1341.5,-10 1341.5,-30 1361.5,-30 1361.5,-10 1341.5,-10"/>
<text text-anchor="start" x="1365.2812" y="-15.4" font-family="sans-serif" font-size="14.00" fill="#000000"> &#160;Bootstrap</text>
<polygon fill="#fdb462" stroke="transparent" points="1438.5,-10 1438.5,-30 1458.5,-30 1458.5,-10 1438.5,-10"/>
<text text-anchor="start" x="1462.1732" y="-15.4" font-family="sans-serif" font-size="14.00" fill="#000000"> &#160;Providers</text>
<polygon fill="#fb8072" stroke="transparent" points="1534.5,-10 1534.5,-30 1554.5,-30 1554.5,-10 1534.5,-10"/>
<text text-anchor="start" x="1558.2258" y="-15.4" font-family="sans-serif" font-size="14.00" fill="#000000"> &#160;Exports</text>
<g id="clust1" class="cluster">
<title>cluster_AppModule</title>
<polygon fill="none" stroke="#000000" stroke-dasharray="1,5" points="8,-70 8,-268 2745,-268 2745,-70 8,-70"/>
</g>
<g id="clust2" class="cluster">
<title>cluster_AppModule_declarations</title>
<polygon fill="none" stroke="#000000" points="2615,-78 2615,-130 2737,-130 2737,-78 2615,-78"/>
</g>
<g id="clust4" class="cluster">
<title>cluster_AppModule_imports</title>
<polygon fill="none" stroke="#000000" points="1086,-78 1086,-130 2607,-130 2607,-78 1086,-78"/>
</g>
<g id="clust6" class="cluster">
<title>cluster_AppModule_bootstrap</title>
<polygon fill="none" stroke="#000000" points="1413,-208 1413,-260 1537,-260 1537,-208 1413,-208"/>
</g>
<g id="clust7" class="cluster">
<title>cluster_AppModule_providers</title>
<polygon fill="none" stroke="#000000" points="16,-78 16,-130 1078,-130 1078,-78 16,-78"/>
</g>
<!-- AppComponent -->
<g id="node1" class="node">
<title>AppComponent</title>
<polygon fill="#ffffb3" stroke="#000000" points="2728.9399,-122 2623.0601,-122 2623.0601,-86 2728.9399,-86 2728.9399,-122"/>
<text text-anchor="middle" x="2676" y="-99.8" font-family="Times,serif" font-size="14.00" fill="#000000">AppComponent</text>
</g>
<!-- AppModule -->
<g id="node2" class="node">
<title>AppModule</title>
<polygon fill="#8dd3c7" stroke="#000000" points="1516.6571,-187 1513.6571,-191 1492.6571,-191 1489.6571,-187 1433.3429,-187 1433.3429,-151 1516.6571,-151 1516.6571,-187"/>
<text text-anchor="middle" x="1475" y="-164.8" font-family="Times,serif" font-size="14.00" fill="#000000">AppModule</text>
</g>
<!-- AppComponent&#45;&gt;AppModule -->
<g id="edge1" class="edge">
<title>AppComponent&#45;&gt;AppModule</title>
<path fill="none" stroke="#000000" d="M2676,-122.3228C2676,-145.6602 2676,-183 2676,-183 2676,-183 1526.6899,-183 1526.6899,-183"/>
<polygon fill="#000000" stroke="#000000" points="1526.6899,-179.5001 1516.6899,-183 1526.6899,-186.5001 1526.6899,-179.5001"/>
</g>
<!-- AppComponent  -->
<g id="node12" class="node">
<title>AppComponent </title>
<polygon fill="#80b1d3" stroke="#000000" points="1529.439,-252 1420.561,-252 1420.561,-216 1529.439,-216 1529.439,-252"/>
<text text-anchor="middle" x="1475" y="-229.8" font-family="Times,serif" font-size="14.00" fill="#000000">AppComponent </text>
</g>
<!-- AppModule&#45;&gt;AppComponent  -->
<g id="edge11" class="edge">
<title>AppModule&#45;&gt;AppComponent </title>
<path fill="none" stroke="#000000" stroke-dasharray="1,5" d="M1475,-187.1061C1475,-187.1061 1475,-205.991 1475,-205.991"/>
<polygon fill="#000000" stroke="#000000" points="1471.5001,-205.9909 1475,-215.991 1478.5001,-205.991 1471.5001,-205.9909"/>
</g>
<!-- BrowserModule -->
<g id="node3" class="node">
<title>BrowserModule</title>
<polygon fill="#8dd3c7" stroke="#000000" points="2599.4734,-122 2596.4734,-126 2575.4734,-126 2572.4734,-122 2492.5266,-122 2492.5266,-86 2599.4734,-86 2599.4734,-122"/>
<text text-anchor="middle" x="2546" y="-99.8" font-family="Times,serif" font-size="14.00" fill="#000000">BrowserModule</text>
</g>
<!-- BrowserModule&#45;&gt;AppModule -->
<g id="edge2" class="edge">
<title>BrowserModule&#45;&gt;AppModule</title>
<path fill="none" stroke="#000000" d="M2546,-122.2921C2546,-144.2057 2546,-178 2546,-178 2546,-178 1526.9845,-178 1526.9845,-178"/>
<polygon fill="#000000" stroke="#000000" points="1526.9845,-174.5001 1516.9845,-178 1526.9844,-181.5001 1526.9845,-174.5001"/>
</g>
<!-- IonicModule.forRoot() -->
<g id="node4" class="node">
<title>IonicModule.forRoot()</title>
<polygon fill="#8dd3c7" stroke="#000000" points="2474.1855,-122 2471.1855,-126 2450.1855,-126 2447.1855,-122 2329.8145,-122 2329.8145,-86 2474.1855,-86 2474.1855,-122"/>
<text text-anchor="middle" x="2402" y="-99.8" font-family="Times,serif" font-size="14.00" fill="#000000">IonicModule.forRoot()</text>
</g>
<!-- IonicModule.forRoot()&#45;&gt;AppModule -->
<g id="edge3" class="edge">
<title>IonicModule.forRoot()&#45;&gt;AppModule</title>
<path fill="none" stroke="#000000" d="M2402,-122.0267C2402,-142.7672 2402,-174 2402,-174 2402,-174 1526.9356,-174 1526.9356,-174"/>
<polygon fill="#000000" stroke="#000000" points="1526.9357,-170.5001 1516.9356,-174 1526.9356,-177.5001 1526.9357,-170.5001"/>
</g>
<!-- AppRoutingModule -->
<g id="node5" class="node">
<title>AppRoutingModule</title>
<polygon fill="#8dd3c7" stroke="#000000" points="2311.2744,-122 2308.2744,-126 2287.2744,-126 2284.2744,-122 2182.7256,-122 2182.7256,-86 2311.2744,-86 2311.2744,-122"/>
<text text-anchor="middle" x="2247" y="-99.8" font-family="Times,serif" font-size="14.00" fill="#000000">AppRoutingModule</text>
</g>
<!-- AppRoutingModule&#45;&gt;AppModule -->
<g id="edge4" class="edge">
<title>AppRoutingModule&#45;&gt;AppModule</title>
<path fill="none" stroke="#000000" d="M2247,-122.1061C2247,-141.3391 2247,-169 2247,-169 2247,-169 1526.7798,-169 1526.7798,-169"/>
<polygon fill="#000000" stroke="#000000" points="1526.7798,-165.5001 1516.7798,-169 1526.7798,-172.5001 1526.7798,-165.5001"/>
</g>
<!-- AngularFireModule.initializeApp(args) -->
<g id="node6" class="node">
<title>AngularFireModule.initializeApp(args)</title>
<polygon fill="#8dd3c7" stroke="#000000" points="2164.7057,-122 2161.7057,-126 2140.7057,-126 2137.7057,-122 1927.2943,-122 1927.2943,-86 2164.7057,-86 2164.7057,-122"/>
<text text-anchor="middle" x="2046" y="-99.8" font-family="Times,serif" font-size="14.00" fill="#000000">AngularFireModule.initializeApp(args)</text>
</g>
<!-- AngularFireModule.initializeApp(args)&#45;&gt;AppModule -->
<g id="edge5" class="edge">
<title>AngularFireModule.initializeApp(args)&#45;&gt;AppModule</title>
<path fill="none" stroke="#000000" d="M2046,-122.302C2046,-140.2699 2046,-165 2046,-165 2046,-165 1526.987,-165 1526.987,-165"/>
<polygon fill="#000000" stroke="#000000" points="1526.987,-161.5001 1516.987,-165 1526.987,-168.5001 1526.987,-161.5001"/>
</g>
<!-- AngularFireAuthModule -->
<g id="node7" class="node">
<title>AngularFireAuthModule</title>
<polygon fill="#8dd3c7" stroke="#000000" points="1908.9678,-122 1905.9678,-126 1884.9678,-126 1881.9678,-122 1753.0322,-122 1753.0322,-86 1908.9678,-86 1908.9678,-122"/>
<text text-anchor="middle" x="1831" y="-99.8" font-family="Times,serif" font-size="14.00" fill="#000000">AngularFireAuthModule</text>
</g>
<!-- AngularFireAuthModule&#45;&gt;AppModule -->
<g id="edge6" class="edge">
<title>AngularFireAuthModule&#45;&gt;AppModule</title>
<path fill="none" stroke="#000000" d="M1831,-122.027C1831,-138.3976 1831,-160 1831,-160 1831,-160 1526.8846,-160 1526.8846,-160"/>
<polygon fill="#000000" stroke="#000000" points="1526.8846,-156.5001 1516.8846,-160 1526.8845,-163.5001 1526.8846,-156.5001"/>
</g>
<!-- AngularFirestoreModule -->
<g id="node8" class="node">
<title>AngularFirestoreModule</title>
<polygon fill="#8dd3c7" stroke="#000000" points="1734.6811,-122 1731.6811,-126 1710.6811,-126 1707.6811,-122 1579.3189,-122 1579.3189,-86 1734.6811,-86 1734.6811,-122"/>
<text text-anchor="middle" x="1657" y="-99.8" font-family="Times,serif" font-size="14.00" fill="#000000">AngularFirestoreModule</text>
</g>
<!-- AngularFirestoreModule&#45;&gt;AppModule -->
<g id="edge7" class="edge">
<title>AngularFirestoreModule&#45;&gt;AppModule</title>
<path fill="none" stroke="#000000" d="M1657,-122.1871C1657,-137.1824 1657,-156 1657,-156 1657,-156 1526.7545,-156 1526.7545,-156"/>
<polygon fill="#000000" stroke="#000000" points="1526.7545,-152.5001 1516.7545,-156 1526.7544,-159.5001 1526.7545,-152.5001"/>
</g>
<!-- BrowserAnimationsModule -->
<g id="node9" class="node">
<title>BrowserAnimationsModule</title>
<polygon fill="#8dd3c7" stroke="#000000" points="1561.3019,-122 1558.3019,-126 1537.3019,-126 1534.3019,-122 1388.6981,-122 1388.6981,-86 1561.3019,-86 1561.3019,-122"/>
<text text-anchor="middle" x="1475" y="-99.8" font-family="Times,serif" font-size="14.00" fill="#000000">BrowserAnimationsModule</text>
</g>
<!-- BrowserAnimationsModule&#45;&gt;AppModule -->
<g id="edge8" class="edge">
<title>BrowserAnimationsModule&#45;&gt;AppModule</title>
<path fill="none" stroke="#000000" d="M1475,-122.1061C1475,-122.1061 1475,-140.991 1475,-140.991"/>
<polygon fill="#000000" stroke="#000000" points="1471.5001,-140.9909 1475,-150.991 1478.5001,-140.991 1471.5001,-140.9909"/>
</g>
<!-- MatButtonModule -->
<g id="node10" class="node">
<title>MatButtonModule</title>
<polygon fill="#8dd3c7" stroke="#000000" points="1371.2176,-122 1368.2176,-126 1347.2176,-126 1344.2176,-122 1250.7824,-122 1250.7824,-86 1371.2176,-86 1371.2176,-122"/>
<text text-anchor="middle" x="1311" y="-99.8" font-family="Times,serif" font-size="14.00" fill="#000000">MatButtonModule</text>
</g>
<!-- MatButtonModule&#45;&gt;AppModule -->
<g id="edge9" class="edge">
<title>MatButtonModule&#45;&gt;AppModule</title>
<path fill="none" stroke="#000000" d="M1311,-122.1871C1311,-137.1824 1311,-156 1311,-156 1311,-156 1423.1915,-156 1423.1915,-156"/>
<polygon fill="#000000" stroke="#000000" points="1423.1916,-159.5001 1433.1915,-156 1423.1915,-152.5001 1423.1916,-159.5001"/>
</g>
<!-- MatCheckboxModule -->
<g id="node11" class="node">
<title>MatCheckboxModule</title>
<polygon fill="#8dd3c7" stroke="#000000" points="1232.3655,-122 1229.3655,-126 1208.3655,-126 1205.3655,-122 1093.6345,-122 1093.6345,-86 1232.3655,-86 1232.3655,-122"/>
<text text-anchor="middle" x="1163" y="-99.8" font-family="Times,serif" font-size="14.00" fill="#000000">MatCheckboxModule</text>
</g>
<!-- MatCheckboxModule&#45;&gt;AppModule -->
<g id="edge10" class="edge">
<title>MatCheckboxModule&#45;&gt;AppModule</title>
<path fill="none" stroke="#000000" d="M1163,-122.027C1163,-138.3976 1163,-160 1163,-160 1163,-160 1423.246,-160 1423.246,-160"/>
<polygon fill="#000000" stroke="#000000" points="1423.2461,-163.5001 1433.246,-160 1423.246,-156.5001 1423.2461,-163.5001"/>
</g>
<!-- StatusBar -->
<g id="node13" class="node">
<title>StatusBar</title>
<ellipse fill="#fdb462" stroke="#000000" cx="1021" cy="-104" rx="48.6694" ry="18"/>
<text text-anchor="middle" x="1021" y="-99.8" font-family="Times,serif" font-size="14.00" fill="#000000">StatusBar</text>
</g>
<!-- StatusBar&#45;&gt;AppModule -->
<g id="edge12" class="edge">
<title>StatusBar&#45;&gt;AppModule</title>
<path fill="none" stroke="#000000" d="M1021,-122.302C1021,-140.2699 1021,-165 1021,-165 1021,-165 1423.1025,-165 1423.1025,-165"/>
<polygon fill="#000000" stroke="#000000" points="1423.1026,-168.5001 1433.1025,-165 1423.1025,-161.5001 1423.1026,-168.5001"/>
</g>
<!-- SplashScreen -->
<g id="node14" class="node">
<title>SplashScreen</title>
<ellipse fill="#fdb462" stroke="#000000" cx="891" cy="-104" rx="63.1189" ry="18"/>
<text text-anchor="middle" x="891" y="-99.8" font-family="Times,serif" font-size="14.00" fill="#000000">SplashScreen</text>
</g>
<!-- SplashScreen&#45;&gt;AppModule -->
<g id="edge13" class="edge">
<title>SplashScreen&#45;&gt;AppModule</title>
<path fill="none" stroke="#000000" d="M891,-122.1061C891,-141.3391 891,-169 891,-169 891,-169 1423.0002,-169 1423.0002,-169"/>
<polygon fill="#000000" stroke="#000000" points="1423.0002,-172.5001 1433.0002,-169 1423.0001,-165.5001 1423.0002,-172.5001"/>
</g>
<!-- { provide: RouteReuseStrategy, useClass: IonicRouteStrategy } -->
<g id="node15" class="node">
<title>{ provide: RouteReuseStrategy, useClass: IonicRouteStrategy }</title>
<ellipse fill="#fdb462" stroke="#000000" cx="553" cy="-104" rx="257.2723" ry="18"/>
<text text-anchor="middle" x="553" y="-99.8" font-family="Times,serif" font-size="14.00" fill="#000000">{ provide: RouteReuseStrategy, useClass: IonicRouteStrategy }</text>
</g>
<!-- { provide: RouteReuseStrategy, useClass: IonicRouteStrategy }&#45;&gt;AppModule -->
<g id="edge14" class="edge">
<title>{ provide: RouteReuseStrategy, useClass: IonicRouteStrategy }&#45;&gt;AppModule</title>
<path fill="none" stroke="#000000" d="M553,-122.0267C553,-142.7672 553,-174 553,-174 553,-174 1423.2906,-174 1423.2906,-174"/>
<polygon fill="#000000" stroke="#000000" points="1423.2906,-177.5001 1433.2906,-174 1423.2905,-170.5001 1423.2906,-177.5001"/>
</g>
<!-- UserService -->
<g id="node16" class="node">
<title>UserService</title>
<ellipse fill="#fdb462" stroke="#000000" cx="219" cy="-104" rx="58.4415" ry="18"/>
<text text-anchor="middle" x="219" y="-99.8" font-family="Times,serif" font-size="14.00" fill="#000000">UserService</text>
</g>
<!-- UserService&#45;&gt;AppModule -->
<g id="edge15" class="edge">
<title>UserService&#45;&gt;AppModule</title>
<path fill="none" stroke="#000000" d="M219,-122.2921C219,-144.2057 219,-178 219,-178 219,-178 1423.2106,-178 1423.2106,-178"/>
<polygon fill="#000000" stroke="#000000" points="1423.2107,-181.5001 1433.2106,-178 1423.2106,-174.5001 1423.2107,-181.5001"/>
</g>
<!-- AuthService -->
<g id="node17" class="node">
<title>AuthService</title>
<ellipse fill="#fdb462" stroke="#000000" cx="83" cy="-104" rx="59.1083" ry="18"/>
<text text-anchor="middle" x="83" y="-99.8" font-family="Times,serif" font-size="14.00" fill="#000000">AuthService</text>
</g>
<!-- AuthService&#45;&gt;AppModule -->
<g id="edge16" class="edge">
<title>AuthService&#45;&gt;AppModule</title>
<path fill="none" stroke="#000000" d="M83,-122.3228C83,-145.6602 83,-183 83,-183 83,-183 1423.3402,-183 1423.3402,-183"/>
<polygon fill="#000000" stroke="#000000" points="1423.3402,-186.5001 1433.3402,-183 1423.3402,-179.5001 1423.3402,-186.5001"/>
</g>
</g>
</svg>
