<?xml version="1.0" encoding="UTF-8" standalone="no"?>
<!DOCTYPE svg PUBLIC "-//W3C//DTD SVG 1.1//EN"
 "http://www.w3.org/Graphics/SVG/1.1/DTD/svg11.dtd">
<!-- Generated by graphviz version 2.40.1 (20161225.0304)
 -->
<!-- Title: dependencies Pages: 1 -->
<svg width="713pt" height="211pt"
 viewBox="0.00 0.00 713.00 211.00" xmlns="http://www.w3.org/2000/svg" xmlns:xlink="http://www.w3.org/1999/xlink">
<g id="graph0" class="graph" transform="scale(1 1) rotate(0) translate(4 207)">
<title>dependencies</title>
<polygon fill="#ffffff" stroke="transparent" points="-4,4 -4,-207 709,-207 709,4 -4,4"/>
<text text-anchor="start" x="331.5091" y="-42.4" font-family="sans-serif" font-weight="bold" font-size="14.00" fill="#000000">Legend</text>
<polygon fill="#ffffb3" stroke="transparent" points="118.5,-10 118.5,-30 138.5,-30 138.5,-10 118.5,-10"/>
<text text-anchor="start" x="142.129" y="-15.4" font-family="sans-serif" font-size="14.00" fill="#000000"> &#160;Declarations</text>
<polygon fill="#8dd3c7" stroke="transparent" points="231.5,-10 231.5,-30 251.5,-30 251.5,-10 231.5,-10"/>
<text text-anchor="start" x="255.2251" y="-15.4" font-family="sans-serif" font-size="14.00" fill="#000000"> &#160;Module</text>
<polygon fill="#80b1d3" stroke="transparent" points="317.5,-10 317.5,-30 337.5,-30 337.5,-10 317.5,-10"/>
<text text-anchor="start" x="341.2812" y="-15.4" font-family="sans-serif" font-size="14.00" fill="#000000"> &#160;Bootstrap</text>
<polygon fill="#fdb462" stroke="transparent" points="414.5,-10 414.5,-30 434.5,-30 434.5,-10 414.5,-10"/>
<text text-anchor="start" x="438.1732" y="-15.4" font-family="sans-serif" font-size="14.00" fill="#000000"> &#160;Providers</text>
<polygon fill="#fb8072" stroke="transparent" points="510.5,-10 510.5,-30 530.5,-30 530.5,-10 510.5,-10"/>
<text text-anchor="start" x="534.2258" y="-15.4" font-family="sans-serif" font-size="14.00" fill="#000000"> &#160;Exports</text>
<g id="clust1" class="cluster">
<title>cluster_BarAdminPageModule</title>
<polygon fill="none" stroke="#000000" stroke-dasharray="1,5" points="8,-70 8,-195 697,-195 697,-70 8,-70"/>
</g>
<g id="clust2" class="cluster">
<title>cluster_BarAdminPageModule_declarations</title>
<polygon fill="none" stroke="#000000" points="571,-78 571,-130 689,-130 689,-78 571,-78"/>
</g>
<g id="clust4" class="cluster">
<title>cluster_BarAdminPageModule_imports</title>
<polygon fill="none" stroke="#000000" points="16,-78 16,-130 563,-130 563,-78 16,-78"/>
</g>
<!-- BarAdminPage -->
<g id="node1" class="node">
<title>BarAdminPage</title>
<polygon fill="#ffffb3" stroke="#000000" points="681.3119,-122 578.6881,-122 578.6881,-86 681.3119,-86 681.3119,-122"/>
<text text-anchor="middle" x="630" y="-99.8" font-family="Times,serif" font-size="14.00" fill="#000000">BarAdminPage</text>
</g>
<!-- BarAdminPageModule -->
<g id="node2" class="node">
<title>BarAdminPageModule</title>
<polygon fill="#8dd3c7" stroke="#000000" points="450.8613,-187 447.8613,-191 426.8613,-191 423.8613,-187 305.1387,-187 305.1387,-151 450.8613,-151 450.8613,-187"/>
<text text-anchor="middle" x="378" y="-164.8" font-family="Times,serif" font-size="14.00" fill="#000000">BarAdminPageModule</text>
</g>
<!-- BarAdminPage&#45;&gt;BarAdminPageModule -->
<g id="edge1" class="edge">
<title>BarAdminPage&#45;&gt;BarAdminPageModule</title>
<path fill="none" stroke="#000000" d="M630,-122.1061C630,-141.3391 630,-169 630,-169 630,-169 460.8888,-169 460.8888,-169"/>
<polygon fill="#000000" stroke="#000000" points="460.8889,-165.5001 450.8888,-169 460.8888,-172.5001 460.8889,-165.5001"/>
</g>
<!-- CommonModule -->
<g id="node3" class="node">
<title>CommonModule</title>
<polygon fill="#8dd3c7" stroke="#000000" points="554.6681,-122 551.6681,-126 530.6681,-126 527.6681,-122 443.3319,-122 443.3319,-86 554.6681,-86 554.6681,-122"/>
<text text-anchor="middle" x="499" y="-99.8" font-family="Times,serif" font-size="14.00" fill="#000000">CommonModule</text>
</g>
<!-- CommonModule&#45;&gt;BarAdminPageModule -->
<g id="edge2" class="edge">
<title>CommonModule&#45;&gt;BarAdminPageModule</title>
<path fill="none" stroke="#000000" d="M447.0484,-122.1061C447.0484,-122.1061 447.0484,-140.991 447.0484,-140.991"/>
<polygon fill="#000000" stroke="#000000" points="443.5485,-140.9909 447.0484,-150.991 450.5485,-140.991 443.5485,-140.9909"/>
</g>
<!-- FormsModule -->
<g id="node4" class="node">
<title>FormsModule</title>
<polygon fill="#8dd3c7" stroke="#000000" points="425.8288,-122 422.8288,-126 401.8288,-126 398.8288,-122 330.1712,-122 330.1712,-86 425.8288,-86 425.8288,-122"/>
<text text-anchor="middle" x="378" y="-99.8" font-family="Times,serif" font-size="14.00" fill="#000000">FormsModule</text>
</g>
<!-- FormsModule&#45;&gt;BarAdminPageModule -->
<g id="edge3" class="edge">
<title>FormsModule&#45;&gt;BarAdminPageModule</title>
<path fill="none" stroke="#000000" d="M378,-122.1061C378,-122.1061 378,-140.991 378,-140.991"/>
<polygon fill="#000000" stroke="#000000" points="374.5001,-140.9909 378,-150.991 381.5001,-140.991 374.5001,-140.9909"/>
</g>
<!-- IonicModule -->
<g id="node5" class="node">
<title>IonicModule</title>
<polygon fill="#8dd3c7" stroke="#000000" points="312.3162,-122 309.3162,-126 288.3162,-126 285.3162,-122 223.6838,-122 223.6838,-86 312.3162,-86 312.3162,-122"/>
<text text-anchor="middle" x="268" y="-99.8" font-family="Times,serif" font-size="14.00" fill="#000000">IonicModule</text>
</g>
<!-- IonicModule&#45;&gt;BarAdminPageModule -->
<g id="edge4" class="edge">
<title>IonicModule&#45;&gt;BarAdminPageModule</title>
<path fill="none" stroke="#000000" d="M308.6136,-122.1061C308.6136,-122.1061 308.6136,-140.991 308.6136,-140.991"/>
<polygon fill="#000000" stroke="#000000" points="305.1137,-140.9909 308.6136,-150.991 312.1137,-140.991 305.1137,-140.9909"/>
</g>
<!-- RouterModule.forChild(args) -->
<g id="node6" class="node">
<title>RouterModule.forChild(args)</title>
<polygon fill="#8dd3c7" stroke="#000000" points="205.7323,-122 202.7323,-126 181.7323,-126 178.7323,-122 24.2677,-122 24.2677,-86 205.7323,-86 205.7323,-122"/>
<text text-anchor="middle" x="115" y="-99.8" font-family="Times,serif" font-size="14.00" fill="#000000">RouterModule.forChild(args)</text>
</g>
<!-- RouterModule.forChild(args)&#45;&gt;BarAdminPageModule -->
<g id="edge5" class="edge">
<title>RouterModule.forChild(args)&#45;&gt;BarAdminPageModule</title>
<path fill="none" stroke="#000000" d="M115,-122.1061C115,-141.3391 115,-169 115,-169 115,-169 295.0891,-169 295.0891,-169"/>
<polygon fill="#000000" stroke="#000000" points="295.0891,-172.5001 305.0891,-169 295.0891,-165.5001 295.0891,-172.5001"/>
</g>
</g>
</svg>
