<?xml version="1.0" encoding="UTF-8" standalone="no"?>
<!DOCTYPE svg PUBLIC "-//W3C//DTD SVG 1.1//EN"
 "http://www.w3.org/Graphics/SVG/1.1/DTD/svg11.dtd">
<!-- Generated by graphviz version 2.40.1 (20161225.0304)
 -->
<!-- Title: dependencies Pages: 1 -->
<svg width="811pt" height="211pt"
 viewBox="0.00 0.00 811.00 211.00" xmlns="http://www.w3.org/2000/svg" xmlns:xlink="http://www.w3.org/1999/xlink">
<g id="graph0" class="graph" transform="scale(1 1) rotate(0) translate(4 207)">
<title>dependencies</title>
<polygon fill="#ffffff" stroke="transparent" points="-4,4 -4,-207 807,-207 807,4 -4,4"/>
<text text-anchor="start" x="380.5091" y="-42.4" font-family="sans-serif" font-weight="bold" font-size="14.00" fill="#000000">Legend</text>
<polygon fill="#ffffb3" stroke="transparent" points="167.5,-10 167.5,-30 187.5,-30 187.5,-10 167.5,-10"/>
<text text-anchor="start" x="191.129" y="-15.4" font-family="sans-serif" font-size="14.00" fill="#000000"> &#160;Declarations</text>
<polygon fill="#8dd3c7" stroke="transparent" points="280.5,-10 280.5,-30 300.5,-30 300.5,-10 280.5,-10"/>
<text text-anchor="start" x="304.2251" y="-15.4" font-family="sans-serif" font-size="14.00" fill="#000000"> &#160;Module</text>
<polygon fill="#80b1d3" stroke="transparent" points="366.5,-10 366.5,-30 386.5,-30 386.5,-10 366.5,-10"/>
<text text-anchor="start" x="390.2812" y="-15.4" font-family="sans-serif" font-size="14.00" fill="#000000"> &#160;Bootstrap</text>
<polygon fill="#fdb462" stroke="transparent" points="463.5,-10 463.5,-30 483.5,-30 483.5,-10 463.5,-10"/>
<text text-anchor="start" x="487.1732" y="-15.4" font-family="sans-serif" font-size="14.00" fill="#000000"> &#160;Providers</text>
<polygon fill="#fb8072" stroke="transparent" points="559.5,-10 559.5,-30 579.5,-30 579.5,-10 559.5,-10"/>
<text text-anchor="start" x="583.2258" y="-15.4" font-family="sans-serif" font-size="14.00" fill="#000000"> &#160;Exports</text>
<g id="clust1" class="cluster">
<title>cluster_TabPageModule</title>
<polygon fill="none" stroke="#000000" stroke-dasharray="1,5" points="8,-70 8,-195 795,-195 795,-70 8,-70"/>
</g>
<g id="clust2" class="cluster">
<title>cluster_TabPageModule_declarations</title>
<polygon fill="none" stroke="#000000" points="707,-78 707,-130 787,-130 787,-78 707,-78"/>
</g>
<g id="clust4" class="cluster">
<title>cluster_TabPageModule_imports</title>
<polygon fill="none" stroke="#000000" points="16,-78 16,-130 699,-130 699,-78 16,-78"/>
</g>
<!-- TabPage -->
<g id="node1" class="node">
<title>TabPage</title>
<polygon fill="#ffffb3" stroke="#000000" points="779.479,-122 714.521,-122 714.521,-86 779.479,-86 779.479,-122"/>
<text text-anchor="middle" x="747" y="-99.8" font-family="Times,serif" font-size="14.00" fill="#000000">TabPage</text>
</g>
<!-- TabPageModule -->
<g id="node2" class="node">
<title>TabPageModule</title>
<polygon fill="#8dd3c7" stroke="#000000" points="513.0298,-187 510.0298,-191 489.0298,-191 486.0298,-187 404.9702,-187 404.9702,-151 513.0298,-151 513.0298,-187"/>
<text text-anchor="middle" x="459" y="-164.8" font-family="Times,serif" font-size="14.00" fill="#000000">TabPageModule</text>
</g>
<!-- TabPage&#45;&gt;TabPageModule -->
<g id="edge1" class="edge">
<title>TabPage&#45;&gt;TabPageModule</title>
<path fill="none" stroke="#000000" d="M747,-122.2843C747,-143.3211 747,-175 747,-175 747,-175 523.1706,-175 523.1706,-175"/>
<polygon fill="#000000" stroke="#000000" points="523.1706,-171.5001 513.1706,-175 523.1706,-178.5001 523.1706,-171.5001"/>
</g>
<!-- CommonModule -->
<g id="node3" class="node">
<title>CommonModule</title>
<polygon fill="#8dd3c7" stroke="#000000" points="690.6681,-122 687.6681,-126 666.6681,-126 663.6681,-122 579.3319,-122 579.3319,-86 690.6681,-86 690.6681,-122"/>
<text text-anchor="middle" x="635" y="-99.8" font-family="Times,serif" font-size="14.00" fill="#000000">CommonModule</text>
</g>
<!-- CommonModule&#45;&gt;TabPageModule -->
<g id="edge2" class="edge">
<title>CommonModule&#45;&gt;TabPageModule</title>
<path fill="none" stroke="#000000" d="M635,-122.0225C635,-139.3734 635,-163 635,-163 635,-163 523.2419,-163 523.2419,-163"/>
<polygon fill="#000000" stroke="#000000" points="523.2419,-159.5001 513.2419,-163 523.2419,-166.5001 523.2419,-159.5001"/>
</g>
<!-- FormsModule -->
<g id="node4" class="node">
<title>FormsModule</title>
<polygon fill="#8dd3c7" stroke="#000000" points="561.8288,-122 558.8288,-126 537.8288,-126 534.8288,-122 466.1712,-122 466.1712,-86 561.8288,-86 561.8288,-122"/>
<text text-anchor="middle" x="514" y="-99.8" font-family="Times,serif" font-size="14.00" fill="#000000">FormsModule</text>
</g>
<!-- FormsModule&#45;&gt;TabPageModule -->
<g id="edge3" class="edge">
<title>FormsModule&#45;&gt;TabPageModule</title>
<path fill="none" stroke="#000000" d="M489.8002,-122.1061C489.8002,-122.1061 489.8002,-140.991 489.8002,-140.991"/>
<polygon fill="#000000" stroke="#000000" points="486.3002,-140.9909 489.8002,-150.991 493.3002,-140.991 486.3002,-140.9909"/>
</g>
<!-- IonicModule -->
<g id="node5" class="node">
<title>IonicModule</title>
<polygon fill="#8dd3c7" stroke="#000000" points="448.3162,-122 445.3162,-126 424.3162,-126 421.3162,-122 359.6838,-122 359.6838,-86 448.3162,-86 448.3162,-122"/>
<text text-anchor="middle" x="404" y="-99.8" font-family="Times,serif" font-size="14.00" fill="#000000">IonicModule</text>
</g>
<!-- IonicModule&#45;&gt;TabPageModule -->
<g id="edge4" class="edge">
<title>IonicModule&#45;&gt;TabPageModule</title>
<path fill="none" stroke="#000000" d="M426.4467,-122.1061C426.4467,-122.1061 426.4467,-140.991 426.4467,-140.991"/>
<polygon fill="#000000" stroke="#000000" points="422.9468,-140.9909 426.4467,-150.991 429.9468,-140.991 422.9468,-140.9909"/>
</g>
<!-- HttpClientModule -->
<g id="node6" class="node">
<title>HttpClientModule</title>
<polygon fill="#8dd3c7" stroke="#000000" points="342.1611,-122 339.1611,-126 318.1611,-126 315.1611,-122 223.8389,-122 223.8389,-86 342.1611,-86 342.1611,-122"/>
<text text-anchor="middle" x="283" y="-99.8" font-family="Times,serif" font-size="14.00" fill="#000000">HttpClientModule</text>
</g>
<!-- HttpClientModule&#45;&gt;TabPageModule -->
<g id="edge5" class="edge">
<title>HttpClientModule&#45;&gt;TabPageModule</title>
<path fill="none" stroke="#000000" d="M283,-122.0225C283,-139.3734 283,-163 283,-163 283,-163 394.7581,-163 394.7581,-163"/>
<polygon fill="#000000" stroke="#000000" points="394.7581,-166.5001 404.7581,-163 394.7581,-159.5001 394.7581,-166.5001"/>
</g>
<!-- RouterModule.forChild(args) -->
<g id="node7" class="node">
<title>RouterModule.forChild(args)</title>
<polygon fill="#8dd3c7" stroke="#000000" points="205.7323,-122 202.7323,-126 181.7323,-126 178.7323,-122 24.2677,-122 24.2677,-86 205.7323,-86 205.7323,-122"/>
<text text-anchor="middle" x="115" y="-99.8" font-family="Times,serif" font-size="14.00" fill="#000000">RouterModule.forChild(args)</text>
</g>
<!-- RouterModule.forChild(args)&#45;&gt;TabPageModule -->
<g id="edge6" class="edge">
<title>RouterModule.forChild(args)&#45;&gt;TabPageModule</title>
<path fill="none" stroke="#000000" d="M115,-122.2843C115,-143.3211 115,-175 115,-175 115,-175 394.8716,-175 394.8716,-175"/>
<polygon fill="#000000" stroke="#000000" points="394.8716,-178.5001 404.8716,-175 394.8715,-171.5001 394.8716,-178.5001"/>
</g>
</g>
</svg>
